<svg width="21" height="16" viewBox="0 0 21 16" fill="none" xmlns="http://www.w3.org/2000/svg">
  <!-- Basket Icon -->
  <path d="M20.095 6.79688V7.32812C20.095 7.54948 20.0175 7.73763 19.8625 7.89258C19.7076 8.04753 19.5194 8.125 19.2981 8.125H19.0325L18.1692 14.2012C18.1249 14.4447 18.0253 14.666 17.8704 14.8652C17.7375 15.0866 17.5494 15.2526 17.3059 15.3633C17.0846 15.4961 16.8411 15.5625 16.5754 15.5625H4.4895C4.09106 15.5625 3.7369 15.4297 3.427 15.1641C3.13924 14.9206 2.96216 14.5996 2.89575 14.2012L2.03247 8.125H1.76685C1.54549 8.125 1.35734 8.04753 1.20239 7.89258C1.04744 7.73763 0.969971 7.54948 0.969971 7.32812V6.79688C0.969971 6.57552 1.04744 6.38737 1.20239 6.23242C1.35734 6.07747 1.54549 6 1.76685 6H3.99146L7.54419 1.11914C7.72127 0.875651 7.95369 0.731771 8.24146 0.6875C8.52922 0.643229 8.79484 0.709635 9.03833 0.886719C9.28182 1.0638 9.4257 1.29622 9.46997 1.58398C9.51424 1.87174 9.44784 2.13737 9.27075 2.38086L6.6145 6H14.4504L11.7942 2.38086C11.6171 2.13737 11.5507 1.87174 11.595 1.58398C11.6392 1.29622 11.7831 1.0638 12.0266 0.886719C12.2701 0.709635 12.5357 0.643229 12.8235 0.6875C13.1112 0.731771 13.3437 0.875651 13.5208 1.11914L17.0735 6H19.2981C19.5194 6 19.7076 6.07747 19.8625 6.23242C20.0175 6.38737 20.095 6.57552 20.095 6.79688ZM11.3293 12.6406V8.92188C11.3293 8.70052 11.2519 8.51237 11.0969 8.35742C10.942 8.20247 10.7538 8.125 10.5325 8.125C10.3111 8.125 10.123 8.20247 9.96802 8.35742C9.81307 8.51237 9.7356 8.70052 9.7356 8.92188V12.6406C9.7356 12.862 9.81307 13.0501 9.96802 13.2051C10.123 13.36 10.3111 13.4375 10.5325 13.4375C10.7538 13.4375 10.942 13.36 11.0969 13.2051C11.2519 13.0501 11.3293 12.862 11.3293 12.6406ZM15.0481 12.6406V8.92188C15.0481 8.70052 14.9706 8.51237 14.8157 8.35742C14.6607 8.20247 14.4726 8.125 14.2512 8.125C14.0299 8.125 13.8417 8.20247 13.6868 8.35742C13.5318 8.51237 13.4543 8.70052 13.4543 8.92188V12.6406C13.4543 12.862 13.5318 13.0501 13.6868 13.2051C13.8417 13.36 14.0299 13.4375 14.2512 13.4375C14.4726 13.4375 14.6607 13.36 14.8157 13.2051C14.9706 13.0501 15.0481 12.862 15.0481 12.6406ZM7.6106 12.6406V8.92188C7.6106 8.70052 7.53312 8.51237 7.37817 8.35742C7.22323 8.20247 7.03507 8.125 6.81372 8.125C6.59237 8.125 6.40422 8.20247 6.24927 8.35742C6.09432 8.51237 6.01685 8.70052 6.01685 8.92188V12.6406C6.01685 12.862 6.09432 13.0501 6.24927 13.2051C6.40422 13.36 6.59237 13.4375 6.81372 13.4375C7.03507 13.4375 7.22323 13.36 7.37817 13.2051C7.53312 13.0501 7.6106 12.862 7.6106 12.6406Z" fill="currentColor"/>

  <!-- Red Cross -->
  <line x1="2" y1="2" x2="19" y2="14" stroke="red" stroke-width="2" stroke-linecap="round"/>
  <line x1="19" y1="2" x2="2" y2="14" stroke="red" stroke-width="2" stroke-linecap="round"/>
</svg>
